<svg width="316" height="128" viewBox="0 0 316 128" fill="none" xmlns="http://www.w3.org/2000/svg">
<path d="M1.28 51.32V30.84H65.792L61.952 51.32H1.28ZM19.968 57.72H45.056V123H19.968V57.72ZM102.579 124.152V103.672C104.456 102.563 105.736 100.003 106.419 95.992C107.102 91.9813 107.443 85.5813 107.443 76.792C107.443 67.9173 107.102 61.56 106.419 57.72C105.736 53.7947 104.456 51.32 102.579 50.296V29.944C110.174 30.2 116.275 31.864 120.883 34.936C125.576 38.008 128.99 42.9147 131.123 49.656C133.256 56.3973 134.323 65.528 134.323 77.048C134.323 88.568 133.256 97.6987 131.123 104.44C128.99 111.181 125.576 116.088 120.883 119.16C116.275 122.147 110.174 123.811 102.579 124.152ZM96.179 103.672V124.28C88.6697 123.939 82.5683 122.232 77.875 119.16C73.1817 116.088 69.7683 111.181 67.635 104.44C65.5017 97.6987 64.435 88.568 64.435 77.048C64.435 65.528 65.5017 56.3973 67.635 49.656C69.7683 42.9147 73.139 38.008 77.747 34.936C82.4403 31.864 88.5843 30.2 96.179 29.944V50.296C94.3017 51.32 93.0217 53.7947 92.339 57.72C91.6563 61.6453 91.315 68.0027 91.315 76.792C91.315 85.5813 91.6563 92.024 92.339 96.12C93.0217 100.131 94.3017 102.648 96.179 103.672ZM142.915 51.32L135.875 30.84H173.379C182.168 30.84 189.251 32.2053 194.627 34.936C200.003 37.5813 203.928 42.1467 206.403 48.632C208.878 55.032 210.115 63.864 210.115 75.128C210.115 87.16 208.92 96.6747 206.531 103.672C204.142 110.584 200.302 115.533 195.011 118.52C189.806 121.421 182.894 122.915 174.275 123V102.264C177.518 101.581 179.822 99.2347 181.187 95.224C182.552 91.2133 183.235 84.5147 183.235 75.128C183.235 68.728 182.894 63.8213 182.211 60.408C181.528 56.9093 180.376 54.52 178.755 53.24C177.134 51.96 174.83 51.32 171.843 51.32H142.915ZM142.915 123V57.72H167.875V123H142.915Z" fill="white"/>
<ellipse cx="260" cy="76.5" rx="43" ry="48.5" fill="white"/>
<path d="M224 76.634L232.041 69.4756L252.457 87.6449L306.988 39.1006L315.029 46.259L252.451 101.962L224 76.634Z" fill="#6540C4"/>
</svg>
